<svg xmlns="http://www.w3.org/2000/svg" width="24" height="24" viewBox="0 0 24 24">
  <g id="vuesax_bold_book-saved" data-name="vuesax/bold/book-saved" transform="translate(-108 -255)">
    <g id="book-saved">
      <path id="Vector" d="M0,0H24V24H0Z" transform="translate(108 255)" fill="none" opacity="0"/>
      <path id="Vector-2" data-name="Vector" d="M9.25,2.92V16.83a1,1,0,0,1-1.37.93,25.606,25.606,0,0,0-5.81-1.68l-.31-.04A2.056,2.056,0,0,1,0,14.06V2.17A2.168,2.168,0,0,1,2.17,0h.07A19.189,19.189,0,0,1,8.72,2.03,1,1,0,0,1,9.25,2.92Z" transform="translate(110 258.08)" fill="#ededf4"/>
      <path id="Vector-3" data-name="Vector" d="M7.08,0H7.02a7.76,7.76,0,0,0-.77.1,20.211,20.211,0,0,0-4,1.14,18.385,18.385,0,0,0-1.71.79A1.02,1.02,0,0,0,0,2.92V16.83a1,1,0,0,0,1.37.93,25.606,25.606,0,0,1,5.81-1.68l.31-.04a2.056,2.056,0,0,0,1.76-1.98V2.17A2.168,2.168,0,0,0,7.08,0ZM6.52,10.65c0,.39-.28.56-.62.37l-1.06-.59a.489.489,0,0,0-.41,0l-1.06.59c-.34.19-.62.02-.62-.37V7.58a.845.845,0,0,1,.84-.84h2.1a.845.845,0,0,1,.84.84v3.07Z" transform="translate(120.75 258.08)" fill="#ededf4"/>
    </g>
  </g>
</svg>
