<svg xmlns="http://www.w3.org/2000/svg" xmlns:xlink="http://www.w3.org/1999/xlink" width="24" height="24" viewBox="0 0 24 24">
  <defs>
    <clipPath id="clip-path">
      <rect id="Rectangle_91" data-name="Rectangle 91" width="24" height="24" rx="8" transform="translate(55 409)" fill="#363537"/>
    </clipPath>
    <linearGradient id="linear-gradient" x1="-0.027" y1="0.5" x2="0.997" y2="0.5" gradientUnits="objectBoundingBox">
      <stop offset="0" stop-color="#fff9df"/>
      <stop offset="0.593" stop-color="#ffe177"/>
      <stop offset="1" stop-color="#feb137"/>
    </linearGradient>
    <linearGradient id="linear-gradient-2" x1="-1.867" x2="6.101" xlink:href="#linear-gradient"/>
    <linearGradient id="linear-gradient-3" x1="-0.033" y1="0.5" x2="0.98" y2="0.5" gradientUnits="objectBoundingBox">
      <stop offset="0" stop-color="#ffe177"/>
      <stop offset="1" stop-color="#feb137"/>
    </linearGradient>
    <linearGradient id="linear-gradient-4" x1="-0.175" y1="0.5" x2="0.827" y2="0.5" gradientUnits="objectBoundingBox">
      <stop offset="0" stop-color="#ffd15b"/>
      <stop offset="1" stop-color="#eca026"/>
    </linearGradient>
    <linearGradient id="linear-gradient-5" x1="-0.047" y1="0.5" x2="1.095" y2="0.5" gradientUnits="objectBoundingBox">
      <stop offset="0" stop-color="#fe99a0"/>
      <stop offset="0.593" stop-color="#fe646f"/>
      <stop offset="1" stop-color="#e41f2d"/>
    </linearGradient>
    <linearGradient id="linear-gradient-6" x1="-0.673" x2="0.742" xlink:href="#linear-gradient"/>
    <linearGradient id="linear-gradient-7" x1="-1.003" y1="0.5" x2="0.583" y2="0.5" xlink:href="#linear-gradient-5"/>
    <linearGradient id="linear-gradient-8" x1="0.06" y1="0.5" x2="3.832" y2="0.5" gradientUnits="objectBoundingBox">
      <stop offset="0" stop-color="#f8f6f7"/>
      <stop offset="0.179" stop-color="#f8f6f7"/>
      <stop offset="1" stop-color="#e7e6f5"/>
    </linearGradient>
    <linearGradient id="linear-gradient-9" x1="-1.143" y1="0.5" x2="3.13" y2="0.5" xlink:href="#linear-gradient-8"/>
    <linearGradient id="linear-gradient-10" x1="-2.092" y1="0.5" x2="1.929" y2="0.5" xlink:href="#linear-gradient-8"/>
    <linearGradient id="linear-gradient-11" x1="-9.091" y1="0.5" x2="1.935" y2="0.5" xlink:href="#linear-gradient-8"/>
    <linearGradient id="linear-gradient-12" x1="-6.969" y1="0.5" x2="-2.071" y2="0.5" gradientUnits="objectBoundingBox">
      <stop offset="0" stop-color="#f8f6f7"/>
      <stop offset="1" stop-color="#d1ceeb"/>
    </linearGradient>
  </defs>
  <g id="Group_8965" data-name="Group 8965" transform="translate(-55 -409)">
    <g id="Mask_Group_29" data-name="Mask Group 29" clip-path="url(#clip-path)">
      <g id="calories" transform="translate(55 409)">
        <g id="Group_8968" data-name="Group 8968">
          <path id="Path_245" data-name="Path 245" d="M21.531,11.226a.466.466,0,0,0-.862.1l-.01.027a.477.477,0,0,1-.935-.12C18.856,4.459,15.727,0,12,0h-.019A1.365,1.365,0,0,0,10.81,1.794a4.8,4.8,0,0,1,.172,1.289A4.144,4.144,0,0,1,7.154,7.406,3.5,3.5,0,0,1,6.1,7.26a.968.968,0,0,0-1.2.733,24.616,24.616,0,0,0-.629,3.238.477.477,0,0,1-.935.121l-.009-.027a.466.466,0,0,0-.862-.1A7.711,7.711,0,0,0,1.412,15.1C1.412,20.018,6.152,24,12,24h.054c5.823-.024,10.534-4,10.534-8.894a7.711,7.711,0,0,0-1.058-3.879Z" fill="url(#linear-gradient)"/>
          <path id="Path_246" data-name="Path 246" d="M7.284,5.725a1.36,1.36,0,0,0,1.36-1.36c0-.751-.609-2.993-1.36-2.993s-1.36,2.242-1.36,2.993A1.36,1.36,0,0,0,7.284,5.725Z" fill="url(#linear-gradient-2)"/>
        </g>
        <path id="Path_247" data-name="Path 247" d="M19.019,16.431a7.019,7.019,0,0,1-14.037,0c0-3.876,3.06-9.184,6.936-9.184S19.019,12.554,19.019,16.431Z" fill="url(#linear-gradient-3)"/>
        <path id="Path_248" data-name="Path 248" d="M11.917,7.247a4.321,4.321,0,0,0-.94.1c3.442.761,6.158,5.522,6.158,9.079a7.02,7.02,0,0,1-6.077,6.955,7.021,7.021,0,0,0,7.96-6.956c0-3.876-3.225-9.184-7.1-9.184Z" fill="url(#linear-gradient-4)"/>
        <path id="Path_249" data-name="Path 249" d="M17.664,17.158a5.664,5.664,0,0,1-11.328,0c0-3.128,2.536-6.577,5.664-6.577S17.664,14.03,17.664,17.158Z" fill="url(#linear-gradient-5)"/>
        <g id="Group_8969" data-name="Group 8969">
          <path id="Path_250" data-name="Path 250" d="M21.531,11.226a.466.466,0,0,0-.862.1l-.01.027a.477.477,0,0,1-.935-.12C18.856,4.459,15.727,0,12,0h-.019a1.117,1.117,0,0,0-.6.176c3.154.887,5.69,5.066,6.458,11.055a.477.477,0,0,0,.935.12l.01-.027a.466.466,0,0,1,.862-.1A7.711,7.711,0,0,1,20.7,15.1c0,4.647-4.241,8.46-9.649,8.859.311.023.626.036.944.036h.054c5.823-.024,10.534-4,10.534-8.894a7.711,7.711,0,0,0-1.058-3.879Z" fill="url(#linear-gradient-6)"/>
        </g>
        <path id="Path_251" data-name="Path 251" d="M17.664,17.158a7.079,7.079,0,0,0-1-3.5,9.3,9.3,0,0,1,.467,2.777,7.017,7.017,0,0,1-3.779,6.227A5.666,5.666,0,0,0,17.664,17.158Z" fill="url(#linear-gradient-7)"/>
        <g id="Group_8970" data-name="Group 8970">
          <path id="Path_252" data-name="Path 252" d="M9.045,17.679l.643-.594a.226.226,0,0,0,.073-.164.527.527,0,0,0-.455-.449.257.257,0,0,0-.182.073l-1.006.976V15.145c0-.17-.212-.285-.479-.285s-.461.115-.461.285V19.1c0,.146.194.291.461.291s.479-.145.479-.291V18.54l.309-.285L9.16,19.34a.261.261,0,0,0,.224.115c.224,0,.539-.249.539-.467a.277.277,0,0,0-.049-.145Z" fill="url(#linear-gradient-8)"/>
          <path id="Path_253" data-name="Path 253" d="M12.136,18.473c-.164,0-.249.164-.576.164-.37,0-.509-.17-.509-.467v-.412c0-.3.139-.467.5-.467.327,0,.436.145.582.145.218,0,.364-.285.364-.461,0-.267-.43-.5-1.024-.5a1.211,1.211,0,0,0-1.364,1.285v.412a1.209,1.209,0,0,0,1.376,1.285c.588,0,1.049-.261,1.049-.533a.445.445,0,0,0-.4-.448Z" fill="url(#linear-gradient-9)"/>
          <path id="Path_254" data-name="Path 254" d="M13.925,16.473c-.449,0-1.037.2-1.037.485,0,.218.109.467.315.467.164,0,.212-.2.709-.2a.419.419,0,0,1,.455.449v.061h-.218c-.837,0-1.418.2-1.418.915a.736.736,0,0,0,.776.806,1.183,1.183,0,0,0,.921-.485V19.1c0,.164.182.291.418.291.267,0,.461-.127.461-.291V17.661c0-.612-.388-1.188-1.382-1.188Zm.442,1.74a.564.564,0,0,1-.455.558.222.222,0,0,1-.236-.255c0-.291.321-.327.667-.327h.024Z" fill="url(#linear-gradient-10)"/>
          <path id="Path_255" data-name="Path 255" d="M16.349,14.86c-.273,0-.467.115-.467.285V19.1c0,.146.194.291.467.291s.473-.145.473-.291V15.145c0-.17-.212-.285-.473-.285Z" fill="url(#linear-gradient-11)"/>
        </g>
        <path id="Path_256" data-name="Path 256" d="M16.822,19.1v-.6a6.968,6.968,0,0,1-.336.875C16.68,19.341,16.822,19.222,16.822,19.1Z" fill="url(#linear-gradient-12)"/>
      </g>
    </g>
  </g>
</svg>
