<svg xmlns="http://www.w3.org/2000/svg" xmlns:xlink="http://www.w3.org/1999/xlink" width="24" height="24" viewBox="0 0 24 24">
  <defs>
    <clipPath id="clip-path">
      <rect id="Rectangle_18806" data-name="Rectangle 18806" width="24" height="24" fill="#fff" stroke="#707070" stroke-width="1"/>
    </clipPath>
  </defs>
  <g id="Mask_Group_170" data-name="Mask Group 170" clip-path="url(#clip-path)">
    <g id="delivery-man_1_" data-name="delivery-man (1)" transform="translate(0 0.656)">
      <g id="Group_9417" data-name="Group 9417" transform="translate(0.351 10.082)">
        <path id="Path_6843" data-name="Path 6843" d="M23.649,10.738H17.734v2.055a.925.925,0,0,0,.922.923h2.127l1.269.641,1.6-.641Z" transform="translate(-17.734 -10.738)" fill="#ffe07d" fill-rule="evenodd"/>
      </g>
      <g id="Group_9418" data-name="Group 9418" transform="translate(3.401 13.059)">
        <path id="Path_6844" data-name="Path 6844" d="M13.563,13.716H10.7v1.318a.576.576,0,0,0,.574.574H20.6c0-.828,0-1.25-.634-1.25H18.7a1.773,1.773,0,0,1-1.606-.641Z" transform="translate(-10.698 -13.716)" fill="#6f6571" fill-rule="evenodd"/>
      </g>
      <g id="Group_9419" data-name="Group 9419" transform="translate(3.316 14.952)">
        <path id="Path_6845" data-name="Path 6845" d="M15.7,15.608H7.5a5.051,5.051,0,0,0-.534,3.77c.558-1.9,6.226-1.141,6.808,1.051h6.254c.237-.536.46-1.065.655-1.6H18.921C15.355,17.483,16.5,18.083,15.7,15.608Z" transform="translate(-6.841 -15.608)" fill="#ffe07d" fill-rule="evenodd"/>
      </g>
      <g id="Group_9420" data-name="Group 9420" transform="translate(8.396 4.945)">
        <path id="Path_6846" data-name="Path 6846" d="M15.393,10.46a13.383,13.383,0,0,1-.474,1.818l-1.8.706-2.01-.706c.07-3.8,1.492-5.629,2.7-6.22a2.935,2.935,0,0,1,.882-.457s.587.94.618.94a5.046,5.046,0,0,1,.3,1.995Z" transform="translate(-11.105 -5.602)" fill="#eceaec" fill-rule="evenodd"/>
      </g>
      <g id="Group_9421" data-name="Group 9421" transform="translate(8.389 11.622)">
        <path id="Path_6847" data-name="Path 6847" d="M9.839,12.278h3.813c.878.1,1.959.765,1.959,2.836v2.172H13.62V15.608c0-.828,0-1.25-.634-1.25H11.724a1.773,1.773,0,0,1-1.606-.641A2.354,2.354,0,0,1,9.839,12.278Z" transform="translate(-9.832 -12.278)" fill="#ff8086" fill-rule="evenodd"/>
      </g>
      <g id="Group_9422" data-name="Group 9422" transform="translate(8.396 5.402)">
        <path id="Path_6848" data-name="Path 6848" d="M12.305,12.278c.07-3.8,1.492-5.629,2.7-6.22a2.441,2.441,0,0,0,.6.307c-1.071.81-2.145,2.62-2.206,5.912Z" transform="translate(-12.305 -6.058)" fill="#dad8db" fill-rule="evenodd"/>
      </g>
      <g id="Group_9423" data-name="Group 9423" transform="translate(8.389 11.622)">
        <path id="Path_6849" data-name="Path 6849" d="M13.4,12.278h1.094a2.354,2.354,0,0,0,.279,1.438,1.643,1.643,0,0,0,.838.641h-.326a1.773,1.773,0,0,1-1.606-.641A2.354,2.354,0,0,1,13.4,12.278Z" transform="translate(-13.393 -12.278)" fill="#f76672" fill-rule="evenodd"/>
      </g>
      <g id="Group_9424" data-name="Group 9424" transform="translate(0.351 7.1)">
        <path id="Path_6850" data-name="Path 6850" d="M22.726,7.757h-4.07a.925.925,0,0,0-.922.923v1.527h5.914V8.68a.925.925,0,0,0-.922-.923Z" transform="translate(-17.734 -7.757)" fill="#ffe07d" fill-rule="evenodd"/>
      </g>
      <g id="Group_9425" data-name="Group 9425" transform="translate(0.351 9.09)">
        <path id="Path_6851" data-name="Path 6851" d="M23.649,9.746H17.734V11.2h5.914Z" transform="translate(-17.734 -9.746)" fill="#ff8086" fill-rule="evenodd"/>
      </g>
      <g id="Group_9426" data-name="Group 9426" transform="translate(0.351 7.1)">
        <path id="Path_6852" data-name="Path 6852" d="M22.726,9.746H21.492V8.68a.925.925,0,0,1,.922-.923h1.234a.925.925,0,0,0-.922.923Z" transform="translate(-21.492 -7.757)" fill="#ffc269" fill-rule="evenodd"/>
      </g>
      <g id="Group_9427" data-name="Group 9427" transform="translate(0.351 9.09)">
        <path id="Path_6853" data-name="Path 6853" d="M23.649,11.2H22.414V9.746h1.234V11.2Z" transform="translate(-22.414 -9.746)" fill="#f76672" fill-rule="evenodd"/>
      </g>
      <g id="Group_9428" data-name="Group 9428" transform="translate(0.351 10.541)">
        <path id="Path_6854" data-name="Path 6854" d="M22.726,11.2v1.6a.925.925,0,0,0,.922.923H22.414a.922.922,0,0,1-.922-.923V11.2h1.234Z" transform="translate(-21.492 -11.197)" fill="#ffc269" fill-rule="evenodd"/>
      </g>
      <g id="Group_9429" data-name="Group 9429" transform="translate(3.288 16.239)">
        <path id="Path_6855" data-name="Path 6855" d="M20.712,20.428A3.477,3.477,0,0,0,13.9,19.378a3.567,3.567,0,0,0-.153.939c0,.128.084.112.2.112Q17.333,20.428,20.712,20.428Z" transform="translate(-13.751 -16.895)" fill="#ff8086" fill-rule="evenodd"/>
      </g>
      <g id="Group_9430" data-name="Group 9430" transform="translate(4.075 19.772)">
        <path id="Path_6856" data-name="Path 6856" d="M19.925,20.428h-5.3a2.651,2.651,0,0,0,5.3,0Z" transform="translate(-14.626 -20.428)" fill="#6f6571" fill-rule="evenodd"/>
      </g>
      <g id="Group_9431" data-name="Group 9431" transform="translate(18.271 19.207)">
        <path id="Path_6857" data-name="Path 6857" d="M5.669,19.863,1.11,20.912a2.339,2.339,0,1,0,4.559-1.049Z" transform="translate(-1.11 -19.863)" fill="#6f6571" fill-rule="evenodd"/>
      </g>
      <g id="Group_9432" data-name="Group 9432" transform="translate(17.371 16.549)">
        <path id="Path_6858" data-name="Path 6858" d="M6.152,18.585a3.182,3.182,0,0,0-2.933-1.364A3.234,3.234,0,0,0,.352,20.427a3.183,3.183,0,0,0,.07.629c.013.059.052.035.116.02l.714-.164L5.81,19.863l.341-.078.477-.11a3.156,3.156,0,0,0-.477-1.089Z" transform="translate(-0.352 -17.205)" fill="#eceaec" fill-rule="evenodd"/>
      </g>
      <g id="Group_9433" data-name="Group 9433" transform="translate(16.045 9.816)">
        <path id="Path_6859" data-name="Path 6859" d="M7.955,17.216,6.113,10.843l-.829-.371-.927.371a10.726,10.726,0,0,1,.056,7.986c-.2.535-.42,1.064-.655,1.6H5.082Z" transform="translate(-3.757 -10.472)" fill="#ff8086" fill-rule="evenodd"/>
      </g>
      <g id="Group_9434" data-name="Group 9434" transform="translate(11.533 2.582)">
        <path id="Path_6860" data-name="Path 6860" d="M12.326,3.7l-2.161-.46c-.219.02-.846.547-.846.876l.46,2.338a2.111,2.111,0,0,0,.6.089A2.089,2.089,0,0,0,12.326,3.7Z" transform="translate(-9.319 -3.238)" fill="#ffece4" fill-rule="evenodd"/>
      </g>
      <g id="Group_9435" data-name="Group 9435" transform="translate(9.976 0.352)">
        <path id="Path_6861" data-name="Path 6861" d="M14.024,3.7a2.632,2.632,0,1,0-5.262,0,2.815,2.815,0,0,0,1.121,2.36,2.509,2.509,0,0,0,.9.394V4.114c0-.33.167-.4.387-.416h2.858Z" transform="translate(-8.763 -1.008)" fill="#ff8086" fill-rule="evenodd"/>
      </g>
      <g id="Group_9436" data-name="Group 9436" transform="translate(9.976 0.352)">
        <path id="Path_6862" data-name="Path 6862" d="M14.024,1.405a2.568,2.568,0,0,0-1.377-.4A2.66,2.66,0,0,0,10.017,3.7a2.815,2.815,0,0,0,1.121,2.36,2.441,2.441,0,0,0,.61.311A3.06,3.06,0,0,1,10.924,4.2a2.782,2.782,0,0,1,2.751-2.813,2.54,2.54,0,0,1,.35.023Z" transform="translate(-10.017 -1.008)" fill="#f76672" fill-rule="evenodd"/>
      </g>
      <g id="Group_9437" data-name="Group 9437" transform="translate(12.177 16.63)">
        <path id="Path_6863" data-name="Path 6863" d="M10.592,17.286H8.6V18.54c0,.269.146.289.361.289H11.82c.057-1.258-.7-1.543-1.228-1.543Z" transform="translate(-8.601 -17.286)" fill="#6f6571" fill-rule="evenodd"/>
      </g>
      <g id="Group_9438" data-name="Group 9438" transform="translate(16.045 10.187)">
        <path id="Path_6864" data-name="Path 6864" d="M6.276,18.829a10.726,10.726,0,0,0-.056-7.986h.937a10.719,10.719,0,0,1,.056,7.986c-.2.535-.419,1.064-.655,1.6H5.621c.235-.536.458-1.065.655-1.6Z" transform="translate(-5.621 -10.843)" fill="#f76672" fill-rule="evenodd"/>
      </g>
      <g id="Group_9439" data-name="Group 9439" transform="translate(17.371 16.549)">
        <path id="Path_6865" data-name="Path 6865" d="M2.888,20.427l2.867-3.206a3.133,3.133,0,0,1,.873.035L3.873,20.337a3.172,3.172,0,0,0,.054.544l-.14.032-.714.164c-.064.015-.1.039-.116-.02a3.172,3.172,0,0,1-.07-.629Z" transform="translate(-2.888 -17.205)" fill="#dad8db" fill-rule="evenodd"/>
      </g>
      <g id="Group_9440" data-name="Group 9440" transform="translate(3.316 14.952)">
        <path id="Path_6866" data-name="Path 6866" d="M12.482,15.608h8.2v.722H13.945a1,1,0,0,0-1.023.717,3.33,3.33,0,0,0-.272,1.055,3.525,3.525,0,0,0-.7,1.277A5.051,5.051,0,0,1,12.482,15.608Z" transform="translate(-11.823 -15.608)" fill="#ffc269" fill-rule="evenodd"/>
      </g>
      <g id="Group_9441" data-name="Group 9441" transform="translate(3.288 16.239)">
        <path id="Path_6867" data-name="Path 6867" d="M17.323,18.1A3.453,3.453,0,0,1,19.948,16.9a3.522,3.522,0,0,1,.764.084A3.51,3.51,0,0,0,18,20.317c0,.088.037.108.1.112H16.671c-.12,0-.207.016-.2-.112a3.566,3.566,0,0,1,.153-.939l.008-.025h0a3.527,3.527,0,0,1,.694-1.25Z" transform="translate(-16.468 -16.895)" fill="#f76672" fill-rule="evenodd"/>
      </g>
      <g id="Group_9442" data-name="Group 9442" transform="translate(18.271 19.207)">
        <path id="Path_6868" data-name="Path 6868" d="M1.249,20.881l4.419-1.017a2.324,2.324,0,0,1,.058.624l-3.508.807-.138.032a2.325,2.325,0,0,0,.9,1.367A2.337,2.337,0,0,1,1.11,20.912Z" transform="translate(-1.11 -19.863)" fill="#5d5360" fill-rule="evenodd"/>
      </g>
      <g id="Group_9443" data-name="Group 9443" transform="translate(4.075 19.772)">
        <path id="Path_6869" data-name="Path 6869" d="M15.47,20.428h4.455a2.75,2.75,0,0,1-.163.8H15.814a2.739,2.739,0,0,0,.65,1.636,2.706,2.706,0,0,1-1.838-2.435Z" transform="translate(-14.626 -20.428)" fill="#5d5360" fill-rule="evenodd"/>
      </g>
      <g id="Group_9444" data-name="Group 9444" transform="translate(3.401 13.059)">
        <path id="Path_6870" data-name="Path 6870" d="M18.225,15.033V13.716h1.8v1.318a.576.576,0,0,0,.574.574H18.8A.576.576,0,0,1,18.225,15.033Z" transform="translate(-18.225 -13.716)" fill="#5d5360" fill-rule="evenodd"/>
      </g>
      <g id="Group_9445" data-name="Group 9445" transform="translate(11.993 3.042)">
        <path id="Path_6871" data-name="Path 6871" d="M12.007,4.231H10.232c-.219.02-.387.088-.387.418v1.89a2.132,2.132,0,0,1-.516-.086V4.114c0-.33.167-.4.387-.416h2.161a2.088,2.088,0,0,1,.13.533Z" transform="translate(-9.33 -3.698)" fill="#ffddce" fill-rule="evenodd"/>
      </g>
      <g id="Group_9446" data-name="Group 9446" transform="translate(16.251 8.093)">
        <path id="Path_6872" data-name="Path 6872" d="M7.247,8.836l-2.486.822a2.209,2.209,0,0,0,.1,1.185h2.89V9.013c0-.36-.187-.281-.5-.177Z" transform="translate(-4.713 -8.749)" fill="#ffe07d" fill-rule="evenodd"/>
      </g>
      <g id="Group_9447" data-name="Group 9447" transform="translate(14.829 8.909)">
        <path id="Path_6873" data-name="Path 6873" d="M7.412,10.843H8.669c.675,0,.695-1.12-.1-1.185L7.412,9.565l-.311.658Z" transform="translate(-7.101 -9.565)" fill="#ffece4" fill-rule="evenodd"/>
      </g>
      <g id="Group_9448" data-name="Group 9448" transform="translate(10.909 7.247)">
        <path id="Path_6874" data-name="Path 6874" d="M10.844,8.536l-.416-.358C9.387,7.281,8.07,8.8,9.462,9.7l1.172.761.59.383h1.867V9.565l-1.16-.094Z" transform="translate(-8.86 -7.904)" fill="#ff8086" fill-rule="evenodd"/>
      </g>
      <g id="Group_9449" data-name="Group 9449" transform="translate(15.14 9.557)">
        <path id="Path_6875" data-name="Path 6875" d="M7.1,10.843v-.62H8.741a.518.518,0,0,0,.113-.011.52.52,0,0,1-.5.63H7.1Z" transform="translate(-7.1 -10.213)" fill="#ffddce" fill-rule="evenodd"/>
      </g>
      <g id="Group_9450" data-name="Group 9450" transform="translate(10.909 7.401)">
        <path id="Path_6876" data-name="Path 6876" d="M9.463,9.7c-.842-.548-.694-1.318-.214-1.642a1.09,1.09,0,0,0,.6,1.024l.913.592.258.169.59.382h1.484v.62H11.225l-.59-.383Z" transform="translate(-8.86 -8.057)" fill="#f76672" fill-rule="evenodd"/>
      </g>
      <g id="Group_9451" data-name="Group 9451" transform="translate(16.299 8.672)">
        <path id="Path_6877" data-name="Path 6877" d="M6.321,9.658l1-.33A1.521,1.521,0,0,1,7.6,10.843H6.42a.52.52,0,0,0,.5-.63.624.624,0,0,0-.6-.554Z" transform="translate(-6.321 -9.328)" fill="#ffc269" fill-rule="evenodd"/>
      </g>
      <path id="Path_6878" data-name="Path 6878" d="M1.274,7.405h4.07A1.276,1.276,0,0,1,6.617,8.68v4.684H8.14a3.5,3.5,0,0,1-.1-1.092h0A10.217,10.217,0,0,1,9.006,7.8a4.8,4.8,0,0,1,1.49-1.8A3.26,3.26,0,0,1,9.624,3.7a2.983,2.983,0,1,1,5.965,0,.352.352,0,0,1-.352.352H15a2.475,2.475,0,0,1,.034.405,2.441,2.441,0,0,1-1.961,2.391,5.925,5.925,0,0,1,.175,1.529l.877.754,2.134.173,2.461-.814a.745.745,0,0,1,.7,0,.624.624,0,0,1,.219.525v1.83a.352.352,0,0,1-.352.352h-.419l.642,2.218a.352.352,0,0,1-.675.2l-.7-2.414h-1a11.341,11.341,0,0,1-.556,8.882h.632l2.632-2.943-.557-1.923a.352.352,0,0,1,.675-.2l.532,1.839A3.536,3.536,0,0,1,23.991,19.6a.352.352,0,0,1-.264.421l-.5.115a2.69,2.69,0,0,1-5.2,1.2l-.394.091a.459.459,0,0,1-.34-.019.4.4,0,0,1-.2-.27,3.5,3.5,0,0,1-.057-.35H9.689a3,3,0,0,1-5.929,0H3.426a.482.482,0,0,1-.365-.132.451.451,0,0,1-.124-.342,3.985,3.985,0,0,1,.144-.952,5.485,5.485,0,0,1,.389-3.546.926.926,0,0,1-.42-.775v-.966H1.274A1.276,1.276,0,0,1,0,12.793V8.679A1.275,1.275,0,0,1,1.274,7.405ZM19.5,22.074a1.972,1.972,0,0,0,1.5.253h0a1.992,1.992,0,0,0,1.54-2.035l-3.813.878a1.976,1.976,0,0,0,.774.9Zm-1.759-1.4,5.469-1.258a2.831,2.831,0,0,0-2.8-1.855l-2.679,3Q17.731,20.615,17.737,20.674Zm-5.31-6.126a3.13,3.13,0,0,1,.1,1.06v1.327h1.287v-1.82c0-2.058-1.123-2.424-1.627-2.485H8.742a1.49,1.49,0,0,0,.319,1.01,1.632,1.632,0,0,0,1.22.366h1.262a.847.847,0,0,1,.883.541Zm.1,3.09v.839h2.507a1,1,0,0,0-.242-.6.867.867,0,0,0-.626-.238ZM8.758,11.926h3.2a13.128,13.128,0,0,0,.337-1.3l-.972-.631a1.451,1.451,0,0,1-.757-1.336,1.243,1.243,0,0,1,.774-1.018,1.269,1.269,0,0,1,1.18.13,4.151,4.151,0,0,0-.17-.891,2.478,2.478,0,0,1-.445-.088,2.913,2.913,0,0,1-.821-.325c-.677.4-2.166,1.717-2.324,5.46Zm6.1-8.58a2.276,2.276,0,0,0-4.533.352,2.387,2.387,0,0,0,1.314,2.266V4.114a.7.7,0,0,1,.706-.766H14.86Zm-.531,1.108a1.751,1.751,0,0,0-.047-.405H12.4l-.049.007a.418.418,0,0,0,0,.058V6.171a1.739,1.739,0,0,0,.252.019h0a1.735,1.735,0,0,0,1.73-1.735Zm.456,5.434-.833-.067a.352.352,0,0,1-.2-.084l-1.5-1.293h0a.7.7,0,0,0-.451-.189.541.541,0,0,0-.534.472.775.775,0,0,0,.44.678l1.675,1.087h1.407v-.6Zm1.486.12-.783-.063v.546H16.4c.118,0,.147-.1.15-.18A.279.279,0,0,0,16.271,10.009Zm.832-.243a1.016,1.016,0,0,1,.13.723s0,0,0,0h1.7V9.157L17.1,9.763ZM16.4,11.195H13.273a.352.352,0,0,1-.191-.057l-.159-.1c-.077.338-.164.668-.259.979.717.212,1.855.9,1.855,3.1V16.97a1.467,1.467,0,0,1,.783.42,1.715,1.715,0,0,1,.44,1.087h.709a10.339,10.339,0,0,0-.055-7.282Zm-.579,8.881c.13-.3.255-.6.373-.9h-3.65c-.473,0-.713-.215-.713-.64V15.959H9.051a.352.352,0,0,1,0-.7h2.772a1.591,1.591,0,0,0-.054-.459c-.018-.047-.033-.087-.226-.087H10.281a2.268,2.268,0,0,1-1.729-.585c-.017-.018-.034-.037-.05-.056H3.752v.966a.226.226,0,0,0,.222.223h3.5a.352.352,0,0,1,0,.7H4.181a4.151,4.151,0,0,0-.513,2.171,3.815,3.815,0,0,1,5.811-.454,3.873,3.873,0,0,1,1.105,2.4ZM6.724,22.641a2.317,2.317,0,0,0,2.25-1.861h-4.5a2.317,2.317,0,0,0,2.25,1.861Zm-2.65-2.564h5.8a3.153,3.153,0,0,0-3.111-2.83,3.119,3.119,0,0,0-2.992,2.235l0,.012a3.245,3.245,0,0,0-.116.582ZM.7,12.793a.572.572,0,0,0,.571.571H5.914V11.548H.7Zm0-1.947H5.914V10.1H.7Zm0-1.451H5.914V8.68a.572.572,0,0,0-.571-.571H1.274A.572.572,0,0,0,.7,8.68Z" transform="translate(0 -0.656)"/>
    </g>
  </g>
</svg>
