<svg xmlns="http://www.w3.org/2000/svg" xmlns:xlink="http://www.w3.org/1999/xlink" width="12.001" height="12.001" viewBox="0 0 12.001 12.001">
  <defs>
    <clipPath id="clip-path">
      <rect id="Rectangle_18755" data-name="Rectangle 18755" width="12.001" height="12.001" transform="translate(0.419 0.397)" fill="#fff" stroke="#707070" stroke-width="1"/>
    </clipPath>
  </defs>
  <g id="Mask_Group_62" data-name="Mask Group 62" transform="translate(-0.419 -0.397)" clip-path="url(#clip-path)">
    <g id="rating_1_" data-name="rating (1)" transform="translate(0.154 0.03)">
      <g id="Group_9227" data-name="Group 9227" transform="translate(0.187 0.187)">
        <g id="Group_9222" data-name="Group 9222" transform="translate(3.443 0)">
          <path id="Path_6642" data-name="Path 6642" d="M12.1,2.891l-.5.483a.647.647,0,0,0-.186.573l.117.682a.647.647,0,0,1-.939.682l-.613-.322a.646.646,0,0,0-.6,0l-.613.322a.647.647,0,0,1-.939-.682l.117-.682a.647.647,0,0,0-.186-.573l-.5-.483a.647.647,0,0,1,.359-1.1l.685-.1A.647.647,0,0,0,8.8,1.333L9.107.713a.647.647,0,0,1,1.161,0l.306.621a.647.647,0,0,0,.487.354l.685.1A.647.647,0,0,1,12.1,2.891Z" transform="translate(-7.073 -0.352)" fill="#f9da41"/>
          <path id="Path_6643" data-name="Path 6643" d="M8.117,2.975c.2.515.5.86.292,1.346s-.1,1.126.977.668l-.613.322a.647.647,0,0,1-.939-.682l.117-.682a.647.647,0,0,0-.186-.573l-.5-.483a.647.647,0,0,1,.359-1.1l.685-.1A.647.647,0,0,0,8.8,1.333L9.107.712a.64.64,0,0,1,.58-.361c-.455,0-.266,1.314-.918,1.658s-.855.45-.652.965Z" transform="translate(-7.074 -0.352)" fill="#edc932"/>
        </g>
        <g id="Group_9223" data-name="Group 9223" transform="translate(0 3.085)">
          <path id="Path_6644" data-name="Path 6644" d="M3.959,7.869l-.332.324a.434.434,0,0,0-.125.384l.078.457a.434.434,0,0,1-.63.458L2.54,9.276a.434.434,0,0,0-.4,0l-.411.216a.434.434,0,0,1-.63-.458l.078-.457a.434.434,0,0,0-.125-.384L.716,7.869a.434.434,0,0,1,.241-.74l.459-.067a.434.434,0,0,0,.327-.237l.205-.416a.434.434,0,0,1,.778,0l.205.416a.434.434,0,0,0,.327.237l.459.067A.434.434,0,0,1,3.959,7.869Z" transform="translate(-0.585 -6.166)" fill="#f9da41"/>
          <path id="Path_6645" data-name="Path 6645" d="M1.284,7.925c.136.346.338.577.2.9s-.07.755.655.448l-.411.216a.434.434,0,0,1-.63-.458l.078-.457a.434.434,0,0,0-.125-.384L.716,7.869a.434.434,0,0,1,.241-.74l.459-.067a.434.434,0,0,0,.327-.237l.205-.416a.429.429,0,0,1,.389-.242c-.305,0-.179.881-.616,1.112S1.148,7.58,1.284,7.925Z" transform="translate(-0.585 -6.166)" fill="#edc932"/>
        </g>
        <g id="Group_9224" data-name="Group 9224" transform="translate(9.296)">
          <path id="Path_6646" data-name="Path 6646" d="M20.817,1.72l-.267.26a.349.349,0,0,0-.1.309l.063.368a.349.349,0,0,1-.506.368l-.33-.174a.348.348,0,0,0-.325,0l-.33.174a.349.349,0,0,1-.506-.368l.063-.368a.349.349,0,0,0-.1-.309l-.267-.26a.349.349,0,0,1,.193-.595l.369-.054a.349.349,0,0,0,.263-.191L19.2.546a.349.349,0,0,1,.626,0l.165.334a.349.349,0,0,0,.263.191l.369.054A.349.349,0,0,1,20.817,1.72Z" transform="translate(-18.105 -0.352)" fill="#f9da41"/>
          <path id="Path_6647" data-name="Path 6647" d="M18.668,1.765c.109.278.271.463.157.726s-.056.607.527.36l-.33.174a.349.349,0,0,1-.506-.368l.063-.368a.349.349,0,0,0-.1-.309l-.267-.26a.349.349,0,0,1,.193-.595l.369-.054a.349.349,0,0,0,.263-.191L19.2.546a.345.345,0,0,1,.313-.194c-.245,0-.143.708-.495.894s-.461.242-.351.52Z" transform="translate(-18.105 -0.352)" fill="#edc932"/>
        </g>
        <g id="Group_9226" data-name="Group 9226" transform="translate(3.413 3.227)">
          <path id="Path_6648" data-name="Path 6648" d="M12.113,15.567c1.844,0,2.886-1.888,2.886-3.512V10.714a.755.755,0,0,0-1.511,0V9.909a.755.755,0,1,0-1.511,0V9.833a.755.755,0,0,0-1.511,0V7.188a.755.755,0,0,0-1.511,0v3.554a2.594,2.594,0,0,0-.323-.776.862.862,0,0,0-1.508.836,3.622,3.622,0,0,1,.222,1.3v.921a2.539,2.539,0,0,0,2.539,2.539Z" transform="translate(-7.017 -6.434)" fill="#ffddce"/>
          <g id="Group_9225" data-name="Group 9225" transform="translate(0 0)">
            <path id="Path_6649" data-name="Path 6649" d="M12.642,18.056a2.5,2.5,0,0,0,.787-.124,2.462,2.462,0,0,1-1.317.373H9.886a2.539,2.539,0,0,1-2.539-2.539v-.921a3.626,3.626,0,0,0-.222-1.3A.863.863,0,0,1,7.8,12.264a.863.863,0,0,0-.145,1.029,3.619,3.619,0,0,1,.222,1.3v.921a2.539,2.539,0,0,0,2.539,2.539Z" transform="translate(-7.017 -9.17)" fill="#ffcbbe"/>
            <path id="Path_6650" data-name="Path 6650" d="M13.771,13.44a.251.251,0,0,0,.251-.251V12.172a.756.756,0,0,1,.5-.712.755.755,0,0,0-1.006.712v1.017A.251.251,0,0,0,13.771,13.44Z" transform="translate(-10.07 -8.773)" fill="#ffcbbe"/>
            <path id="Path_6651" data-name="Path 6651" d="M19.466,14.085a.251.251,0,0,0,.251-.251h0a.756.756,0,0,1,.5-.712.755.755,0,0,0-1.006.712h0a.251.251,0,0,0,.251.251Z" transform="translate(-12.743 -9.553)" fill="#ffcbbe"/>
            <path id="Path_6652" data-name="Path 6652" d="M16.618,13.584a.251.251,0,0,0,.251-.251V12.316a.756.756,0,0,1,.5-.712.755.755,0,0,0-1.006.712v1.017a.251.251,0,0,0,.251.251Z" transform="translate(-11.406 -8.841)" fill="#ffcbbe"/>
            <path id="Path_6653" data-name="Path 6653" d="M10.924,12.6a.251.251,0,0,0,.251-.251V7.189a.756.756,0,0,1,.5-.712.755.755,0,0,0-1.006.712V12.35A.251.251,0,0,0,10.924,12.6Z" transform="translate(-8.733 -6.434)" fill="#ffcbbe"/>
          </g>
        </g>
      </g>
      <g id="Group_9228" data-name="Group 9228" transform="translate(0)">
        <path id="Path_6654" data-name="Path 6654" d="M3.52,8.381a.248.248,0,0,1,.071-.219l.332-.324A.621.621,0,0,0,3.58,6.779l-.459-.067a.247.247,0,0,1-.186-.135l-.205-.416a.621.621,0,0,0-1.113,0l-.205.416a.247.247,0,0,1-.186.135l-.459.067A.621.621,0,0,0,.421,7.838l.332.324a.247.247,0,0,1,.071.219l-.078.457a.62.62,0,0,0,.9.654l.411-.216a.247.247,0,0,1,.23,0l.411.216a.621.621,0,0,0,.9-.654Zm-.189-.486a.621.621,0,0,0-.178.549l.078.457a.248.248,0,0,1-.359.261l-.411-.216a.621.621,0,0,0-.578,0l-.411.216A.248.248,0,0,1,1.114,8.9l.078-.458a.621.621,0,0,0-.178-.549L.681,7.57a.248.248,0,0,1,.137-.422l.459-.067a.62.62,0,0,0,.467-.339l.205-.416a.248.248,0,0,1,.444,0l.205.416a.62.62,0,0,0,.467.339l.459.067a.248.248,0,0,1,.137.422Z" transform="translate(-0.233 -2.73)"/>
        <path id="Path_6655" data-name="Path 6655" d="M20.782,1.688a.535.535,0,0,0-.3-.913L20.116.722a.162.162,0,0,1-.122-.089L19.829.3a.535.535,0,0,0-.96,0L18.7.633a.162.162,0,0,1-.122.089l-.369.054a.535.535,0,0,0-.3.913l.267.26a.162.162,0,0,1,.047.144l-.063.368a.535.535,0,0,0,.777.564l.33-.174a.162.162,0,0,1,.151,0l.33.174a.535.535,0,0,0,.777-.564l-.063-.368a.162.162,0,0,1,.047-.144Zm-.528-.007a.535.535,0,0,0-.154.474l.063.368a.162.162,0,0,1-.235.171l-.33-.174a.535.535,0,0,0-.5,0l-.33.174a.162.162,0,0,1-.235-.171l.063-.368a.535.535,0,0,0-.154-.474l-.267-.26a.162.162,0,0,1,.09-.277l.369-.054a.535.535,0,0,0,.4-.293L19.2.464a.162.162,0,0,1,.291,0L19.66.8a.535.535,0,0,0,.4.293l.369.054a.162.162,0,0,1,.09.277Z" transform="translate(-8.458 0)"/>
        <path id="Path_6656" data-name="Path 6656" d="M14.079,6.752a.937.937,0,0,0-.569.192V6.889A.942.942,0,0,0,11.9,6.223q-.032.032-.061.067a.958.958,0,0,0-.118-.143.941.941,0,0,0-1.235-.084V5.377a.834.834,0,0,0,1.044-.944l-.117-.682a.46.46,0,0,1,.132-.408l.5-.483a.82.82,0,0,0,.238-.747A.83.83,0,0,0,11.8,1.5a.187.187,0,1,0-.148.343.458.458,0,0,1,.267.34.452.452,0,0,1-.132.412l-.5.483a.833.833,0,0,0-.24.738l.117.682a.461.461,0,0,1-.668.486l-.008,0V4.168a.942.942,0,0,0-1.884,0v.754l-.11.058A.461.461,0,0,1,7.827,4.5l.117-.682a.833.833,0,0,0-.24-.738l-.5-.483a.461.461,0,0,1,.255-.786l.685-.1a.834.834,0,0,0,.628-.456L9.083.63a.461.461,0,0,1,.826,0l.306.621a.833.833,0,0,0,.628.456l.118.017a.187.187,0,1,0,.054-.369L10.9,1.337a.461.461,0,0,1-.347-.252L10.244.465a.834.834,0,0,0-1.5,0l-.306.62a.461.461,0,0,1-.347.252l-.685.1a.834.834,0,0,0-.462,1.422l.5.483a.46.46,0,0,1,.132.408l-.117.682a.832.832,0,0,0,1.146.909V6.812A1.049,1.049,0,0,0,6.8,7.874,3.336,3.336,0,0,1,7,9.086v.921a2.716,2.716,0,0,0,.417,1.45.187.187,0,0,0,.316-.2,2.343,2.343,0,0,1-.36-1.251V9.086a3.656,3.656,0,0,0-.245-1.393.676.676,0,1,1,1.182-.656,2.72,2.72,0,0,1,.3.7V9.329a.187.187,0,1,0,.373,0V4.169a.569.569,0,0,1,1.138,0V7.83a.187.187,0,0,0,.373,0V6.812a.569.569,0,1,1,1.138,0V7.906a.187.187,0,1,0,.373,0V6.89h0a.569.569,0,1,1,1.138,0v.805a.187.187,0,0,0,.373,0,.569.569,0,0,1,1.138,0V9.035a3.964,3.964,0,0,1-.716,2.255,2.42,2.42,0,0,1-1.984,1.07H9.722a2.352,2.352,0,0,1-1.546-.579.187.187,0,1,0-.245.281,2.724,2.724,0,0,0,1.791.671h2.226a2.8,2.8,0,0,0,2.286-1.224,4.29,4.29,0,0,0,.787-2.475V7.694a.942.942,0,0,0-.942-.942Z" transform="translate(-3.253 0)"/>
      </g>
    </g>
  </g>
</svg>
