<svg xmlns="http://www.w3.org/2000/svg" xmlns:xlink="http://www.w3.org/1999/xlink" width="24" height="24" viewBox="0 0 24 24">
  <defs>
    <clipPath id="clip-path">
      <rect id="Rectangle_18805" data-name="Rectangle 18805" width="24" height="24" transform="translate(40 846)" fill="#fff" stroke="#707070" stroke-width="1"/>
    </clipPath>
  </defs>
  <g id="Mask_Group_169" data-name="Mask Group 169" transform="translate(-40 -846)" clip-path="url(#clip-path)">
    <g id="layer2" transform="translate(39.2 845.2)">
      <path id="path6529" d="M3.6,22.809V10c0-2.8,2-4,2-8.8H20c0,4.8,2,6,2,8.8V22.8Z" fill="#ff9751"/>
      <path id="rect6714" d="M11.4,21.2a1,1,0,0,0-1,1v.606l2,0v-.6a1,1,0,0,0-1-1Z" fill="#ff7f29"/>
      <path id="rect6540" d="M11.2,2.8h3.2a.8.8,0,0,1,0,1.6H11.2a.8.8,0,1,1,0-1.6Z" fill="#e4eff8"/>
      <path id="path6538" d="M3.6,22.8V10c0-2.8,2-4,2-8.8h.8c0,4.8-2,6-2,8.8V22.8Z" fill="#f8f8f8"/>
      <path id="path6651" d="M2.9,19.891l1.368,1.368A1,1,0,0,0,3.6,22.2v1.146l-.016.037a1,1,0,0,1-.113-.1L1.491,21.3A1,1,0,1,1,2.9,19.891Z" fill="#ffc6a0"/>
      <path id="rect6653" d="M4.6,21.2a1,1,0,0,1,1,1v1.2a1,1,0,1,1-2,0V22.2a1,1,0,0,1,1-1Z" fill="#ffc6a0"/>
      <path id="path6655" d="M4.8,23.4a1,1,0,0,1-.6.916A1,1,0,0,0,5.6,23.4V22.2a1,1,0,0,0-1.4-.916,1,1,0,0,1,.6.916Z" fill="#ffaf7a"/>
      <path id="path6657" d="M3.6,23.4a1,1,0,0,0,1,1,.985.985,0,0,0,.295-.05.994.994,0,0,1-.7-.95V22.2a.994.994,0,0,1,.7-.95A.985.985,0,0,0,4.6,21.2a1,1,0,0,0-1,1Z" fill="#f8f8f8"/>
      <path id="path6661" d="M4.207,21.287A.991.991,0,0,0,3.6,22.2v1.146l-.016.037a1,1,0,0,1-.113-.1l-.67-.67V22.2a1,1,0,0,1,1.407-.913Z" fill="#ffaf7a"/>
      <path id="path6665" d="M2.128,20.873,3.6,22.345v1l-.016.037a1,1,0,0,1-.113-.1L1.491,21.3A1,1,0,0,1,2,19.617,1,1,0,0,0,2.128,20.873Z" fill="#ffaf7a"/>
      <path id="path6663" d="M2.9,19.891l1.368,1.368a1,1,0,0,0-.513.407L2.41,20.316a1,1,0,0,0-1.072-.225,1,1,0,0,1,1.566-.2Z" fill="#f8f8f8"/>
      <path id="rect6667" d="M-6.6-21.2a1,1,0,0,0,1-1v-1.2a1,1,0,0,0-1-1,1,1,0,0,0-1,1v1.2a1,1,0,0,0,1,1Z" transform="rotate(180)" fill="#ffc6a0"/>
      <path id="path6669" d="M6.8,23.4a1,1,0,0,1-.6.916A1,1,0,0,0,7.6,23.4V22.2a1,1,0,0,0-1.4-.916,1,1,0,0,1,.6.916Z" fill="#ffaf7a"/>
      <path id="path6671" d="M5.6,23.4a1,1,0,0,0,1,1,.985.985,0,0,0,.295-.05.994.994,0,0,1-.7-.95V22.2a.994.994,0,0,1,.7-.95A.985.985,0,0,0,6.6,21.2a1,1,0,0,0-1,1Z" fill="#f8f8f8"/>
      <path id="rect6675" d="M8.6,21.2a1,1,0,0,1,1,1v1.2a1,1,0,1,1-2,0V22.2a1,1,0,0,1,1-1Z" fill="#ffc6a0"/>
      <path id="path6677" d="M8.8,23.4a1,1,0,0,1-.6.916A1,1,0,0,0,9.6,23.4V22.2a1,1,0,0,0-1.4-.916,1,1,0,0,1,.6.916Z" fill="#ffaf7a"/>
      <path id="path6679" d="M7.6,23.4a1,1,0,0,0,1,1,.985.985,0,0,0,.295-.05.994.994,0,0,1-.7-.95V22.2a.994.994,0,0,1,.7-.95A.985.985,0,0,0,8.6,21.2a1,1,0,0,0-1,1Z" fill="#f8f8f8"/>
      <path id="rect6683" d="M10.6,21.2a1,1,0,0,1,1,1v1.2a1,1,0,1,1-2,0V22.2a1,1,0,0,1,1-1Z" fill="#ffc6a0"/>
      <path id="path6685" d="M10.8,23.4a1,1,0,0,1-.6.916,1,1,0,0,0,1.4-.916V22.2a1,1,0,0,0-1.4-.916,1,1,0,0,1,.6.916Z" fill="#ffaf7a"/>
      <path id="path6687" d="M9.6,23.4a1,1,0,0,0,1,1,.985.985,0,0,0,.295-.05.994.994,0,0,1-.7-.95V22.2a.994.994,0,0,1,.7-.95.985.985,0,0,0-.295-.05,1,1,0,0,0-1,1Z" fill="#f8f8f8"/>
      <path id="path6533" d="M22,22.8V10c0-2.8-2-4-2-8.8h-.8c0,4.8,2,6,2,8.8V22.8Z" fill="#ff7f29"/>
      <path id="rect6544" d="M11.2,2.8a.8.8,0,0,0,0,1.6.8.8,0,0,1,.8-.8h3.2a.8.8,0,0,0-.8-.8Z" fill="#c4dcf0"/>
      <path id="path6520" d="M7.6,17.2V18a1.6,1.6,0,0,0,1.6,1.6h7.2A1.6,1.6,0,0,0,18,18v-.8Z" fill="#ffc6a0"/>
      <path id="path6511" d="M7.6,13.6a4.789,4.789,0,0,1,4.8-4.8h.8A4.789,4.789,0,0,1,18,13.6Z" fill="#ffc6a0"/>
      <path id="rect6502" d="M8,13.6h9.6a.8.8,0,0,1,0,1.6H8a.8.8,0,0,1,0-1.6Z" fill="#e4eff8"/>
      <path id="path6485" d="M14.228,17.2H8a.8.8,0,0,1-.8-.8V16a.8.8,0,0,1,.8-.8h9.6a.8.8,0,0,1,.8.8v.4a.8.8,0,0,1-.8.8H15.371" fill="#ff9751"/>
      <path id="path6492" d="M13.6,15.2l1.429,2h1.142l1.429-2Z" fill="#ff7f29"/>
      <path id="path6489" d="M16.8,15.2a.8.8,0,0,1,.8.8v.4a.8.8,0,0,1-.8.8h.8a.8.8,0,0,0,.8-.8V16a.8.8,0,0,0-.8-.8Z" fill="#ff7f29"/>
      <path id="path6524" d="M17.2,17.2V18a1.6,1.6,0,0,1-1.6,1.6h.8A1.6,1.6,0,0,0,18,18v-.8Z" fill="#ffaf7a"/>
      <path id="path6527" d="M8.4,17.2V18A1.6,1.6,0,0,0,10,19.6H9.2A1.6,1.6,0,0,1,7.6,18v-.8Z" fill="#f8f8f8"/>
      <path id="path6499" d="M8,15.2a.8.8,0,0,0-.8.8v.4a.8.8,0,0,0,.8.8h.8a.8.8,0,0,1-.8-.8V16a.8.8,0,0,1,.8-.8Z" fill="#f8f8f8"/>
      <path id="path6471" d="M12.8,15.2l2,2.8,2-2.8Z" fill="#ffc6a0"/>
      <path id="path6475" d="M16,15.2l-1.6,2.24.4.56,2-2.8Z" fill="#ffaf7a"/>
      <path id="path6481" d="M12.8,15.2l2,2.8.4-.56L13.6,15.2Z" fill="#f8f8f8"/>
      <path id="rect6506" d="M16.8,13.6a.8.8,0,0,1,0,1.6h.8a.8.8,0,0,0,0-1.6Z" fill="#c4dcf0"/>
      <path id="path6509" d="M8.8,13.6a.8.8,0,0,0,0,1.6H8a.8.8,0,1,1,0-1.6Z" fill="#f8f8f8"/>
      <path id="path6515" d="M12.4,8.8a4.789,4.789,0,0,1,4.8,4.8H18a4.789,4.789,0,0,0-4.8-4.8Z" fill="#ffaf7a"/>
      <path id="path6518" d="M13.2,8.8a4.789,4.789,0,0,0-4.8,4.8H7.6a4.789,4.789,0,0,1,4.8-4.8Z" fill="#f8f8f8"/>
      <path id="path6588" d="M22.7,19.891l-1.368,1.368A1,1,0,0,1,22,22.2v1.146l.016.037a1.028,1.028,0,0,0,.113-.1l1.98-1.98A1,1,0,1,0,22.7,19.891Z" fill="#ffc6a0"/>
      <path id="rect6547" d="M-21-21.2a1,1,0,0,0,1-1v-1.2a1,1,0,0,0-1-1,1,1,0,0,0-1,1v1.2a1,1,0,0,0,1,1Z" transform="rotate(180)" fill="#ffc6a0"/>
      <path id="path6582" d="M21.2,23.4a1,1,0,0,1-.6.916A1,1,0,0,0,22,23.4V22.2a1,1,0,0,0-1.4-.916,1,1,0,0,1,.6.916Z" fill="#ffaf7a"/>
      <path id="path6584" d="M20,22.2v1.2a1,1,0,0,0,1,1,.983.983,0,0,0,.295-.05.994.994,0,0,1-.7-.95V22.2a.994.994,0,0,1,.7-.95A.982.982,0,0,0,21,21.2a1,1,0,0,0-1,1Z" fill="#f8f8f8"/>
      <path id="rect6598" d="M21.393,21.287A.991.991,0,0,1,22,22.2v1.146l.016.037a1.029,1.029,0,0,0,.113-.1l.67-.67V22.2a1,1,0,0,0-1.407-.913Z" fill="#ffaf7a"/>
      <path id="path6605" d="M23.472,20.873,22,22.345v1l.016.037a1.029,1.029,0,0,0,.113-.1l1.98-1.98a1,1,0,0,0-.508-1.688,1,1,0,0,1-.13,1.256Z" fill="#ffaf7a"/>
      <path id="path6595" d="M22.7,19.891l-1.368,1.368a1,1,0,0,1,.513.407l1.349-1.349a1,1,0,0,1,1.072-.225,1,1,0,0,0-1.566-.2Z" fill="#f8f8f8"/>
      <path id="rect6549" d="M-19-21.2a1,1,0,0,0,1-1v-1.2a1,1,0,0,0-1-1,1,1,0,0,0-1,1v1.2a1,1,0,0,0,1,1Z" transform="rotate(180)" fill="#ffc6a0"/>
      <path id="path6576" d="M19.2,23.4a1,1,0,0,1-.6.916A1,1,0,0,0,20,23.4V22.2a1,1,0,0,0-1.4-.916,1,1,0,0,1,.6.916Z" fill="#ffaf7a"/>
      <path id="path6578" d="M18,22.2v1.2a1,1,0,0,0,1,1,.983.983,0,0,0,.295-.05.994.994,0,0,1-.7-.95V22.2a.994.994,0,0,1,.7-.95A.982.982,0,0,0,19,21.2a1,1,0,0,0-1,1Z" fill="#f8f8f8"/>
      <path id="rect6551" d="M-17-21.2a1,1,0,0,0,1-1v-1.2a1,1,0,0,0-1-1,1,1,0,0,0-1,1v1.2a1,1,0,0,0,1,1Z" transform="rotate(180)" fill="#ffc6a0"/>
      <path id="path6568" d="M17.2,23.4a1,1,0,0,1-.6.916A1,1,0,0,0,18,23.4V22.2a1,1,0,0,0-1.4-.916,1,1,0,0,1,.6.916Z" fill="#ffaf7a"/>
      <path id="path6570" d="M16,22.2v1.2a1,1,0,0,0,1,1,.983.983,0,0,0,.295-.05.994.994,0,0,1-.7-.95V22.2a.994.994,0,0,1,.7-.95A.982.982,0,0,0,17,21.2a1,1,0,0,0-1,1Z" fill="#f8f8f8"/>
      <path id="rect6553" d="M-15-21.2a1,1,0,0,0,1-1v-1.2a1,1,0,0,0-1-1,1,1,0,0,0-1,1v1.2a1,1,0,0,0,1,1Z" transform="rotate(180)" fill="#ffc6a0"/>
      <path id="rect6557" d="M14.6,21.283a1,1,0,0,1,.6.916v1.2a1,1,0,0,1-.6.916A1,1,0,0,0,16,23.4V22.2a1,1,0,0,0-1.4-.916Z" fill="#ffaf7a"/>
      <path id="rect6562" d="M14,22.2v1.2a1,1,0,0,0,1,1,.983.983,0,0,0,.295-.05.994.994,0,0,1-.7-.95V22.2a.994.994,0,0,1,.7-.95A.982.982,0,0,0,15,21.2a1,1,0,0,0-1,1Z" fill="#f8f8f8"/>
      <path id="rect4294" d="M5.6.8a.4.4,0,0,0-.4.4,12.3,12.3,0,0,1-.971,5A9.582,9.582,0,0,0,3.2,10V19.62a1.4,1.4,0,1,0-1.991,1.969L3.1,23.483c.037.037.074.078.11.108a1.4,1.4,0,0,0,2.387.79,1.4,1.4,0,0,0,2,0,1.4,1.4,0,0,0,2,0A1.4,1.4,0,0,0,12,23.4v-.2h1.6v.2a1.4,1.4,0,0,0,2.4.979,1.4,1.4,0,0,0,2,0,1.4,1.4,0,0,0,2,0,1.4,1.4,0,0,0,2.387-.79c.036-.03.074-.071.11-.108l1.894-1.894a1.4,1.4,0,1,0-1.98-1.98l-.012.012V10a9.582,9.582,0,0,0-1.027-3.8,12.306,12.306,0,0,1-.971-5A.4.4,0,0,0,20,.8Zm.393.8H19.605A12.771,12.771,0,0,0,20.443,6H5.156a12.771,12.771,0,0,0,.838-4.4Zm5.206.8a1.2,1.2,0,1,0,0,2.4q1.6,0,3.2,0a1.2,1.2,0,1,0,0-2.4q-1.6,0-3.2,0Zm0,.8q1.6,0,3.2,0a.4.4,0,1,1,0,.8q-1.6,0-3.2,0a.4.4,0,1,1,0-.8ZM4.848,6.8h15.9A7.942,7.942,0,0,1,21.6,10v10.42l-.395.395A1.449,1.449,0,0,0,21,20.8a1.393,1.393,0,0,0-1,.42,1.4,1.4,0,0,0-2,0,1.4,1.4,0,0,0-2,0,1.4,1.4,0,0,0-2.4.979v.2H12v-.2a1.4,1.4,0,0,0-2.4-.979,1.4,1.4,0,0,0-2,0,1.4,1.4,0,0,0-2,0,1.393,1.393,0,0,0-1-.42,1.442,1.442,0,0,0-.2.016l-.4-.4V10a7.942,7.942,0,0,1,.848-3.2ZM12.4,8.4a5.189,5.189,0,0,0-5.2,5.1,1.2,1.2,0,0,0-.4.9,1.184,1.184,0,0,0,.3.8,1.191,1.191,0,0,0-.3.8v.4a1.189,1.189,0,0,0,.4.895V18a2,2,0,0,0,2,2q3.6,0,7.2,0a2,2,0,0,0,2-2v-.705a1.194,1.194,0,0,0,.4-.9V16a1.19,1.19,0,0,0-.3-.8,1.2,1.2,0,0,0-.1-1.694,5.189,5.189,0,0,0-5.2-5.1Zm0,.8h.8a4.383,4.383,0,0,1,4.38,4c-1.089,0-8.474,0-9.562,0a4.39,4.39,0,0,1,4.381-4ZM17.6,14a.4.4,0,1,1,0,.8c-1.067,0-8.533,0-9.6,0A.4.4,0,1,1,8,14C9.066,14,16.533,14,17.6,14Zm-4.147,2.8L8,16.8a.4.4,0,0,1-.4-.4V16a.4.4,0,0,1,.4-.4h4.6Zm.123-1.2h2.445L14.8,17.312ZM17,15.6h.6a.4.4,0,0,1,.4.4v.4a.4.4,0,0,1-.4.4H16.147ZM8,17.6l6.024,0,.451.632a.4.4,0,0,0,.65,0l.452-.632,2.024,0V18a1.2,1.2,0,0,1-1.2,1.2q-3.6,0-7.2,0A1.2,1.2,0,0,1,8,18ZM2.194,20a.6.6,0,0,1,.429.179l1.01,1.01A1.4,1.4,0,0,0,3.2,22.2v.25L1.774,21.023A.6.6,0,0,1,2.194,20Zm21.211,0a.6.6,0,0,1,.42,1.027L22.4,22.448V22.2a1.4,1.4,0,0,0-.434-1.013l1.01-1.01A.6.6,0,0,1,23.405,20ZM4.6,21.6a.6.6,0,0,1,.6.6v1.2a.6.6,0,0,1-1.2,0V22.2A.6.6,0,0,1,4.6,21.6Zm2,0a.6.6,0,0,1,.6.6v1.2a.6.6,0,0,1-1.2,0V22.2A.6.6,0,0,1,6.6,21.6Zm2,0a.6.6,0,0,1,.6.6v1.2a.6.6,0,0,1-1.2,0V22.2a.6.6,0,0,1,.6-.6Zm2,0a.6.6,0,0,1,.6.6v1.2a.6.6,0,0,1-1.2,0V22.2a.6.6,0,0,1,.6-.6Zm4.4,0a.6.6,0,0,1,.6.6v1.2a.6.6,0,0,1-1.2,0V22.2A.6.6,0,0,1,15,21.6Zm2,0a.6.6,0,0,1,.6.6v1.2a.6.6,0,0,1-1.2,0V22.2A.6.6,0,0,1,17,21.6Zm2,0a.6.6,0,0,1,.6.6v1.2a.6.6,0,0,1-1.2,0V22.2A.6.6,0,0,1,19,21.6Zm2,0a.6.6,0,0,1,.6.6v1.2a.6.6,0,0,1-1.2,0V22.2A.6.6,0,0,1,21,21.6Z" fill="#333"/>
    </g>
  </g>
</svg>
