<svg xmlns="http://www.w3.org/2000/svg" xmlns:xlink="http://www.w3.org/1999/xlink" width="24" height="24" viewBox="0 0 24 24">
  <defs>
    <clipPath id="clip-path">
      <rect id="Rectangle_18717" data-name="Rectangle 18717" width="24" height="24" fill="#363537" stroke="#707070" stroke-width="1"/>
    </clipPath>
  </defs>
  <g id="Mask_Group_49" data-name="Mask Group 49" clip-path="url(#clip-path)">
    <g id="layer1" transform="translate(0.001 0)">
      <path id="path14798" d="M10.133,282.774a9.6,9.6,0,1,1-9.6,9.6,9.607,9.607,0,0,1,9.6-9.6Zm0,1.6a8,8,0,1,0,8,8A8.007,8.007,0,0,0,10.133,284.375Zm0,3.2a1.2,1.2,0,0,1,1.2,1.2,1.179,1.179,0,0,1-.116.5,4.408,4.408,0,0,1,2.959,2.091,5.581,5.581,0,0,1,.468,1H5.622a5.546,5.546,0,0,1,.467-1,4.412,4.412,0,0,1,2.96-2.091,1.175,1.175,0,0,1-.116-.5,1.206,1.206,0,0,1,1.2-1.2Zm5.2,5.6a.4.4,0,0,1,.4.4v.4a1.606,1.606,0,0,1-1.6,1.6h-8a1.606,1.606,0,0,1-1.6-1.6v-.4a.4.4,0,0,1,.4-.4Zm3.15,5.387.646.646-2.165,2.165-.646-.646A10.5,10.5,0,0,0,18.484,298.561Zm1.812.776a.4.4,0,0,1,.282.116l3.257,3.26a2.38,2.38,0,1,1-3.365,3.365l-3.257-3.26a.4.4,0,0,1,0-.566l2.8-2.8a.4.4,0,0,1,.282-.116Z" transform="translate(-0.534 -282.774)" fill="#363537"/>
    </g>
  </g>
</svg>
